:SAMPLES-PER-SECOND 30
:FULLY-SPECIFIED
:DEGREES
373
root  -3.19252 40.7016 -0.548215 -1.71022 -79.3075 1.94499
RightUpLeg  -1.33621 -5.003 -1.49989
RightLeg  10.2605 -25.0092 -1.83734
RightFoot  -4.56726 -0.277735 4.16781
RightToes  -3.13006e-008 1.75238e-005 3.56266e-009
Spine  4.40144 -1.21228 -6.26201
Spine1  6.27605 -2.45337 5.2674
HEad  -19.9798 -7.33257 3.21866
LeftShoulder1  1.87329 -6.20153 -12.2179
LeftArm  -23.4874 -49.3414 -43.9665
LeftForeArm  160.423 -81.7053 -107.935
LeftHand  -1.52335 -6.50119 15.1429
RightShoulder  2.18893 6.90093 14.1677
RightArm  -18.7736 43.1856 35.2084
RightForeArm  145.795 78.8201 125.541
RightHand  -2.52384 10.5328 -18.5966
LeftUpLeg  -4.17932 3.42833 3.52078
LeftLeg  9.80263 0.605815 -0.652342
LeftFoot  -2.786 0.34586 -4.40052
LeftToes  4.78685e-008 1.46778e-008 1.34523e-009
374
root  -3.1513 41.0519 -0.918101 -0.856089 -77.8804 4.17643
RightUpLeg  -2.86802 -3.54428 -1.41091
RightLeg  5.99082 -27.5908 0.0442129
RightFoot  -1.23932 -0.337387 3.71761
RightToes  -3.13006e-008 1.75238e-005 3.56266e-009
Spine  6.94503 -0.391377 -4.40889
Spine1  -0.0610216 -0.654911 1.14362
HEad  -23.8304 -9.74446 2.22185
LeftShoulder1  1.78513 -6.33219 -10.9308
LeftArm  -27.4886 -56.3417 -48.4149
LeftForeArm  135.763 -82.0991 -79.7775
LeftHand  -1.38038 -7.20828 13.0029
RightShoulder  1.72905 5.98057 11.046
RightArm  -28.4415 47.0436 31.4226
RightForeArm  141.397 79.8206 118.008
RightHand  -2.50629 10.5963 -18.4172
LeftUpLeg  -6.12375 1.96803 3.61495
LeftLeg  5.63211 1.05064 -1.20522
LeftFoot  2.01041 0.597395 -5.19516
LeftToes  4.78685e-008 1.46778e-008 1.34523e-009
375
root  -3.12463 41.3342 -1.25219 0.296741 -76.7473 5.48033
RightUpLeg  -3.82376 -3.22875 -1.4174
RightLeg  1.82755 -28.5004 2.12909
RightFoot  1.98763 -0.373782 3.31238
RightToes  -3.13006e-008 1.75238e-005 3.56266e-009
Spine  8.97814 0.261151 -2.16177
Spine1  -4.38287 0.724589 -3.69787
HEad  -27.4149 -11.9463 0.89601
LeftShoulder1  1.60561 -6.04997 -9.43602
LeftArm  -31.4619 -62.1861 -52.7461
LeftForeArm  122.819 -81.4935 -65.5409
LeftHand  -1.2577 -7.16282 11.9392
RightShoulder  1.31607 4.97651 8.05659
RightArm  -41.0772 49.7932 26.1092
RightForeArm  140.01 80.1957 114.647
RightHand  -2.20546 10.1923 -16.588
LeftUpLeg  -7.65881 1.30108 3.83314
LeftLeg  2.15776 0.783323 -1.48938
LeftFoot  6.41268 0.937976 -6.25129
LeftToes  4.78685e-008 1.46778e-008 1.34523e-009
376
root  -3.11693 41.5125 -1.57114 1.51453 -75.7792 5.8722
RightUpLeg  -4.00751 -2.6124 -1.09845
RightLeg  -2.09101 -29.8319 3.951
RightFoot  4.4563 -0.352529 2.76341
RightToes  -3.13006e-008 1.75238e-005 3.56266e-009
Spine  10.6141 0.546424 0.132645
Spine1  -7.16043 1.58546 -8.74103
HEad  -28.3903 -14.5824 0.597168
LeftShoulder1  1.44827 -5.8119 -8.03612
LeftArm  -35.6658 -66.3137 -55.5415
LeftForeArm  115.458 -80.9465 -59.006
LeftHand  -1.30083 -6.97068 12.5079
RightShoulder  1.13495 4.40589 6.72376
RightArm  -54.6118 51.4941 19.5666
RightForeArm  139.423 80.3713 112.91
RightHand  -1.48174 9.03311 -12.2882
LeftUpLeg  -8.62431 1.18211 4.13128
LeftLeg  -0.398652 0.143626 -1.5125
LeftFoot  9.68443 1.27486 -7.18981
LeftToes  4.78685e-008 1.46778e-008 1.34523e-009
377
root  -3.14942 41.568 -1.88611 2.35686 -74.5533 6.07274
RightUpLeg  -3.7265 -1.89993 -0.589499
RightLeg  -5.55344 -31.7259 5.5276
RightFoot  5.82594 -0.241393 1.85914
RightToes  -3.13006e-008 1.75238e-005 3.56266e-009
Spine  11.4339 0.511684 0.869559
Spine1  -8.21085 1.80002 -11.5416
HEad  -27.3127 -14.287 0.398689
LeftShoulder1  1.44407 -5.79396 -8.01504
LeftArm  -41.9839 -68.9982 -54.2977
LeftForeArm  110.31 -80.7334 -58.5363
LeftHand  -1.1677 -6.07302 12.1252
RightShoulder  1.0314 3.9805 6.07819
RightArm  -66.3814 52.0145 13.3719
RightForeArm  134.47 80.7496 107.143
RightHand  -1.45326 8.78084 -12.2064
LeftUpLeg  -9.55654 0.939366 4.31414
LeftLeg  -1.59545 -0.628724 -1.31461
LeftFoot  11.4035 1.46141 -7.61107
LeftToes  4.78685e-008 1.46778e-008 1.34523e-009
378
root  -3.16232 41.5017 -2.18313 2.27631 -73.3102 6.61618
RightUpLeg  -3.74749 -1.6583 -0.266197
RightLeg  -6.75301 -33.1465 6.24501
RightFoot  5.38644 -0.0747632 0.75302
RightToes  -3.13006e-008 1.75238e-005 3.56266e-009
Spine  11.9334 0.260879 0.78507
Spine1  -7.88696 1.76234 -13.237
HEad  -25.1756 -13.3794 0.658327
LeftShoulder1  1.49385 -5.51245 -9.18591
LeftArm  -48.3989 -70.5133 -50.101
LeftForeArm  110.613 -81.0024 -64.0252
LeftHand  -1.12012 -5.05558 12.7067
RightShoulder  0.985124 3.51838 6.35461
RightArm  -75.4234 51.9963 9.10612
RightForeArm  132.345 80.7879 105.663
RightHand  -1.71393 8.75225 -14.3551
LeftUpLeg  -10.3627 0.534846 4.24524
LeftLeg  -1.59543 -1.23453 -0.960063
LeftFoot  11.5854 1.4527 -7.50716
LeftToes  4.78685e-008 1.46778e-008 1.34523e-009
